<svg xmlns="http://www.w3.org/2000/svg" viewBox="0 0 1440 320"><path fill="#ffe05d" fill-opacity="1" d="M0,64L20,74.7C40,85,80,107,120,128C160,149,200,171,240,165.3C280,160,320,128,360,144C400,160,440,224,480,224C520,224,560,160,600,128C640,96,680,96,720,117.3C760,139,800,181,840,170.7C880,160,920,96,960,69.3C1000,43,1040,53,1080,101.3C1120,149,1160,235,1200,256C1240,277,1280,235,1320,197.3C1360,160,1400,128,1420,112L1440,96L1440,320L1420,320C1400,320,1360,320,1320,320C1280,320,1240,320,1200,320C1160,320,1120,320,1080,320C1040,320,1000,320,960,320C920,320,880,320,840,320C800,320,760,320,720,320C680,320,640,320,600,320C560,320,520,320,480,320C440,320,400,320,360,320C320,320,280,320,240,320C200,320,160,320,120,320C80,320,40,320,20,320L0,320Z"></path></svg>